<svg width="24" height="24" viewBox="0 0 24 24" fill="none" xmlns="http://www.w3.org/2000/svg">
<path fill-rule="evenodd" clip-rule="evenodd" d="M10 18C5.58172 18 2 14.4183 2 10C2 5.58172 5.58172 2 10 2C14.4183 2 18 5.58172 18 10C18 11.8487 17.3729 13.551 16.3198 14.9057L21.7071 20.293L20.2929 21.7072L14.9056 16.3199C13.5509 17.3729 11.8487 18 10 18ZM16 9.99991C16 13.3136 13.3137 15.9999 10 15.9999C6.68629 15.9999 4 13.3136 4 9.99991C4 6.6862 6.68629 3.99991 10 3.99991C13.3137 3.99991 16 6.6862 16 9.99991Z" fill="#2D84EC"/>
</svg>
